<svg xmlns="http://www.w3.org/2000/svg" width="1000" height="420" viewBox="0 0 1000 420">
  <rect width="1000" height="420" fill="#ffffff"/>
  <text x="40" y="38" font-size="24" font-family="Segoe UI, Arial" fill="#111">D3. Midpoints of Each Division</text>
  <rect x="120" y="80" width="740" height="250" fill="#E6F4FF" stroke="#90CAF9"/>
  <polyline points="60,300 250,300 500,180 940,180" fill="none" stroke="#424242" stroke-width="4"/>

  <line x1="120" y1="320" x2="120" y2="145" stroke="#BBDEFB" stroke-width="1"/>
  <line x1="225" y1="320" x2="225" y2="145" stroke="#BBDEFB" stroke-width="1"/>
  <line x1="330" y1="320" x2="330" y2="145" stroke="#BBDEFB" stroke-width="1"/>
  <line x1="435" y1="320" x2="435" y2="145" stroke="#BBDEFB" stroke-width="1"/>
  <line x1="540" y1="320" x2="540" y2="145" stroke="#BBDEFB" stroke-width="1"/>
  <line x1="700" y1="320" x2="700" y2="145" stroke="#BBDEFB" stroke-width="1"/>
  <line x1="860" y1="320" x2="860" y2="145" stroke="#BBDEFB" stroke-width="1"/>

  <circle cx="172" cy="300" r="6" fill="#FB8C00"/>
  <circle cx="277" cy="287" r="6" fill="#FB8C00"/>
  <circle cx="382" cy="236" r="6" fill="#FB8C00"/>
  <circle cx="487" cy="186" r="6" fill="#FB8C00"/>
  <circle cx="620" cy="180" r="6" fill="#FB8C00"/>
  <circle cx="780" cy="180" r="6" fill="#FB8C00"/>

  <text x="130" y="105" font-size="14" font-family="Segoe UI, Arial" fill="#EF6C00">Orange dots = division midpoints used for pairing</text>
</svg>
